<svg width="32" height="33" viewBox="0 0 32 33" fill="none" xmlns="http://www.w3.org/2000/svg">
<circle cx="16" cy="16.5" r="16" fill="white"/>
<path fill-rule="evenodd" clip-rule="evenodd" d="M19.9593 6.21597C19.9593 7.19118 19.5286 8.16639 18.9207 8.87004C18.2746 9.6478 17.16 10.228 16.2733 10.2281C16.172 10.2281 16.0706 10.2157 16.0073 10.2034C15.9947 10.154 15.9693 10.0058 15.9693 9.85768C15.9693 8.87004 16.4887 7.89483 17.046 7.2776C17.7554 6.47522 18.9333 5.8703 19.9213 5.83325C19.9467 5.94441 19.9593 6.08019 19.9593 6.21597ZM23.4439 12.359C23.4685 12.3433 23.4854 12.3325 23.4933 12.3265C22.176 10.4872 20.1746 10.4377 19.6172 10.4376C18.7655 10.4376 18.0032 10.7321 17.3623 10.9797C16.8976 11.1592 16.4967 11.3141 16.1719 11.3141C15.8136 11.3141 15.4034 11.1525 14.9455 10.9722C14.3675 10.7445 13.7136 10.487 12.9927 10.487C10.5608 10.487 8.09082 12.4498 8.09082 16.1532C8.09082 18.4616 9.00278 20.8935 10.1301 22.4613C11.1054 23.7945 11.954 24.8809 13.17 24.8809C13.7467 24.8809 14.1695 24.706 14.6142 24.522C15.1071 24.3181 15.6268 24.1031 16.4127 24.1031C17.2062 24.1031 17.6805 24.305 18.1381 24.4996C18.5643 24.681 18.9759 24.8561 19.6173 24.8561C20.9472 24.8561 21.8213 23.6835 22.6572 22.5107C23.5946 21.1775 23.9873 19.8689 23.9999 19.8072C23.9239 19.7826 21.378 18.7827 21.378 15.9558C21.378 13.6805 23.1122 12.5711 23.4439 12.359Z" fill="black"/>
</svg>
