<svg width="32" height="33" viewBox="0 0 32 33" fill="none" xmlns="http://www.w3.org/2000/svg">
<circle cx="16" cy="16.5" r="16" fill="white"/>
<path d="M26.0001 16.7399C26.0001 16.0377 25.9385 15.3711 25.8329 14.7222H15.8911V18.7311H21.5835C21.3283 20.0466 20.5805 21.1577 19.4719 21.9133V24.5799H22.868C24.8563 22.7222 26.0001 19.9844 26.0001 16.7399Z" fill="#4285F4"/>
<path d="M15.891 27.1665C18.7416 27.1665 21.1258 26.2065 22.8679 24.5798L19.4718 21.9132C18.5216 22.5532 17.3163 22.9443 15.891 22.9443C13.1372 22.9443 10.8057 21.0687 9.96989 18.5354H6.46826V21.2821C8.20148 24.7665 11.7647 27.1665 15.891 27.1665Z" fill="#34A853"/>
<path d="M9.97008 18.5356C9.75013 17.8956 9.63575 17.2111 9.63575 16.5C9.63575 15.7889 9.75892 15.1044 9.97008 14.4644V11.7178H6.46845C5.74701 13.1578 5.3335 14.7756 5.3335 16.5C5.3335 18.2244 5.74701 19.8422 6.46845 21.2822L9.97008 18.5356Z" fill="#FBBC05"/>
<path d="M15.891 10.0555C17.4483 10.0555 18.8383 10.5977 19.9381 11.6555L22.947 8.61547C21.1258 6.89103 18.7416 5.83325 15.891 5.83325C11.7647 5.83325 8.20148 8.23325 6.46826 11.7177L9.96989 14.4644C10.8057 11.931 13.1372 10.0555 15.891 10.0555Z" fill="#EA4335"/>
</svg>
