<svg width="32" height="33" viewBox="0 0 32 33" fill="none" xmlns="http://www.w3.org/2000/svg">
<circle cx="16" cy="16.5" r="16" fill="white"/>
<path fill-rule="evenodd" clip-rule="evenodd" d="M24.3117 9.60997C25.2291 9.85173 25.9548 10.5636 26.2013 11.4635C26.6531 13.102 26.6668 16.5001 26.6668 16.5001C26.6668 16.5001 26.6668 19.9116 26.215 21.5367C25.9685 22.4366 25.2428 23.1484 24.3254 23.3902C22.6685 23.8334 16.0002 23.8334 16.0002 23.8334C16.0002 23.8334 9.33178 23.8334 7.67496 23.3902C6.75754 23.1484 6.03183 22.4366 5.78536 21.5367C5.3335 19.8981 5.3335 16.5001 5.3335 16.5001C5.3335 16.5001 5.3335 13.102 5.77166 11.4769C6.01813 10.577 6.74385 9.86516 7.66127 9.6234C9.31809 9.18018 15.9865 9.16675 15.9865 9.16675C15.9865 9.16675 22.6548 9.16675 24.3117 9.60997ZM19.3959 16.5001L13.8641 19.6429V13.3572L19.3959 16.5001Z" fill="#FF0000"/>
</svg>
